<svg version="1.2" xmlns="http://www.w3.org/2000/svg" viewBox="0 0 2211 2211" width="2211" height="2211">
	<title>NodeFlow (3)</title>
	<style>
		.s0 { fill: none;stroke: #000000;stroke-miterlimit:10;stroke-width: 1.4 } 
		.s1 { fill: #000000 } 
	</style>
	<g id="Page 1">
		<path id="Path 1" fill-rule="evenodd" class="s0" d="m113.4 1105.5h1984.3"/>
		<path id="x" class="s1" aria-label="x"  d="m2127.1 1088.7h5.3l-9.9 13.3 10.4 14h-5.3l-7.9-10.7-8 10.7h-5.3l10.6-14.3-9.7-13h5.3l7.3 9.7z"/>
		<path id="Path 3" fill-rule="evenodd" class="s0" d="m1105.5 2097.6v-1984.3"/>
		<path id="y" class="s1" aria-label="y"  d="m1120.9 68.7l-12 29.8q-1.9 4.9-3.7 6.4-1.8 1.5-4.9 1.5h-3.6v-3.8h2.7q1.8 0 2.9-0.8 1-0.9 2.2-4.2l0.8-2-11-26.9h4.7l8.6 21.3 8.5-21.3z"/>
		<path id="Path 5" fill-rule="evenodd" class="s1" d="m2097.7 1105.5l-28.4-17v34zm-992.1-992.1l17 28.3h-34zm-848.5 1842.5c0-1.1-0.8-1.9-1.9-1.9-1.1 0-2 0.8-2 1.9 0 1.1 0.9 2 2 2 1.1 0 1.9-0.9 1.9-2z"/>
		<path id="Path 6" fill-rule="evenodd" class="s1" d="m257.1 1814.2c0-1.1-0.9-2-2-2-1.1 0-2 0.9-2 2 0 1.1 0.9 2 2 2 1.1 0 2-0.9 2-2zm0-141.8c0-1.1-0.9-2-2-2-1.1 0-2 0.9-2 2 0 1.1 0.9 2 2 2 1.1 0 2-0.9 2-2zm0-141.7c0-1.1-0.9-2-2-2-1.1 0-2 0.9-2 2 0 1.1 0.9 2 2 2 1.1 0 2-0.9 2-2zm0-141.7c0-1.1-0.9-2-2-2-1.1 0-2 0.9-2 2 0 1.1 0.9 1.9 2 1.9 1.1 0 2-0.8 2-1.9zm0-141.8c0-1.1-0.9-2-2-2-1.1 0-2 0.9-2 2 0 1.1 0.9 2 2 2 1.1 0 2-0.9 2-2zm0-141.7c0-1.1-0.9-2-2-2-1.1 0-2 0.9-2 2 0 1.1 0.9 2 2 2 1.1 0 2-0.9 2-2zm0-141.7c0-1.1-0.9-2-2-2-1.1 0-2 0.9-2 2 0 1.1 0.9 1.9 2 1.9 1.1 0 2-0.8 2-1.9zm0-141.8c0-1.1-0.9-2-2-2-1.1 0-2 0.9-2 2 0 1.1 0.9 2 2 2 1.1 0 2-0.9 2-2zm0-141.7c0-1.1-0.9-2-2-2-1.1 0-2 0.9-2 2 0 1.1 0.9 2 2 2 1.1 0 2-0.9 2-2zm0-141.7c0-1.1-0.9-2-2-2-1.1 0-2 0.9-2 2 0 1.1 0.9 1.9 2 1.9 1.1 0 2-0.8 2-1.9zm0-141.8c0-1.1-0.9-2-2-2-1.1 0-2 0.9-2 2 0 1.1 0.9 2 2 2 1.1 0 2-0.9 2-2zm0-141.7c0-1.1-0.9-2-2-2-1.1 0-2 0.9-2 2 0 1.1 0.9 2 2 2 1.1 0 2-0.9 2-2zm141.7 1700.8c0-1.1-0.9-2-2-2-1.1 0-2 0.9-2 2 0 1.1 0.9 2 2 2 1.1 0 2-0.9 2-2z"/>
		<path id="Path 7" fill-rule="evenodd" class="s1" d="m398.8 1814.2c0-1.1-0.9-2-2-2-1.1 0-2 0.9-2 2 0 1.1 0.9 2 2 2 1.1 0 2-0.9 2-2zm0-141.8c0-1.1-0.9-2-2-2-1.1 0-2 0.9-2 2 0 1.1 0.9 2 2 2 1.1 0 2-0.9 2-2zm0-141.7c0-1.1-0.9-2-2-2-1.1 0-2 0.9-2 2 0 1.1 0.9 2 2 2 1.1 0 2-0.9 2-2zm0-141.7c0-1.1-0.9-2-2-2-1.1 0-2 0.9-2 2 0 1.1 0.9 1.9 2 1.9 1.1 0 2-0.8 2-1.9zm0-141.8c0-1.1-0.9-2-2-2-1.1 0-2 0.9-2 2 0 1.1 0.9 2 2 2 1.1 0 2-0.9 2-2zm0-141.7c0-1.1-0.9-2-2-2-1.1 0-2 0.9-2 2 0 1.1 0.9 2 2 2 1.1 0 2-0.9 2-2zm0-141.7c0-1.1-0.9-2-2-2-1.1 0-2 0.9-2 2 0 1.1 0.9 1.9 2 1.9 1.1 0 2-0.8 2-1.9zm0-141.8c0-1.1-0.9-2-2-2-1.1 0-2 0.9-2 2 0 1.1 0.9 2 2 2 1.1 0 2-0.9 2-2zm0-141.7c0-1.1-0.9-2-2-2-1.1 0-2 0.9-2 2 0 1.1 0.9 2 2 2 1.1 0 2-0.9 2-2zm0-141.7c0-1.1-0.9-2-2-2-1.1 0-2 0.9-2 2 0 1.1 0.9 1.9 2 1.9 1.1 0 2-0.8 2-1.9zm0-141.8c0-1.1-0.9-2-2-2-1.1 0-2 0.9-2 2 0 1.1 0.9 2 2 2 1.1 0 2-0.9 2-2zm0-141.7c0-1.1-0.9-2-2-2-1.1 0-2 0.9-2 2 0 1.1 0.9 2 2 2 1.1 0 2-0.9 2-2zm141.8 1700.8c0-1.1-0.9-2-2-2-1.1 0-2 0.9-2 2 0 1.1 0.9 2 2 2 1.1 0 2-0.9 2-2z"/>
		<path id="Path 8" fill-rule="evenodd" class="s1" d="m540.6 1814.2c0-1.1-0.9-2-2-2-1.1 0-2 0.9-2 2 0 1.1 0.9 2 2 2 1.1 0 2-0.9 2-2zm0-141.8c0-1.1-0.9-2-2-2-1.1 0-2 0.9-2 2 0 1.1 0.9 2 2 2 1.1 0 2-0.9 2-2zm0-141.7c0-1.1-0.9-2-2-2-1.1 0-2 0.9-2 2 0 1.1 0.9 2 2 2 1.1 0 2-0.9 2-2zm0-141.7c0-1.1-0.9-2-2-2-1.1 0-2 0.9-2 2 0 1.1 0.9 1.9 2 1.9 1.1 0 2-0.8 2-1.9zm0-141.8c0-1.1-0.9-2-2-2-1.1 0-2 0.9-2 2 0 1.1 0.9 2 2 2 1.1 0 2-0.9 2-2zm0-141.7c0-1.1-0.9-2-2-2-1.1 0-2 0.9-2 2 0 1.1 0.9 2 2 2 1.1 0 2-0.9 2-2zm0-141.7c0-1.1-0.9-2-2-2-1.1 0-2 0.9-2 2 0 1.1 0.9 1.9 2 1.9 1.1 0 2-0.8 2-1.9zm0-141.8c0-1.1-0.9-2-2-2-1.1 0-2 0.9-2 2 0 1.1 0.9 2 2 2 1.1 0 2-0.9 2-2zm0-141.7c0-1.1-0.9-2-2-2-1.1 0-2 0.9-2 2 0 1.1 0.9 2 2 2 1.1 0 2-0.9 2-2zm0-141.7c0-1.1-0.9-2-2-2-1.1 0-2 0.9-2 2 0 1.1 0.9 1.9 2 1.9 1.1 0 2-0.8 2-1.9zm0-141.8c0-1.1-0.9-2-2-2-1.1 0-2 0.9-2 2 0 1.1 0.9 2 2 2 1.1 0 2-0.9 2-2zm0-141.7c0-1.1-0.9-2-2-2-1.1 0-2 0.9-2 2 0 1.1 0.9 2 2 2 1.1 0 2-0.9 2-2zm141.7 1700.8c0-1.1-0.9-2-2-2-1.1 0-2 0.9-2 2 0 1.1 0.9 2 2 2 1.1 0 2-0.9 2-2z"/>
		<path id="Path 9" fill-rule="evenodd" class="s1" d="m682.3 1814.2c0-1.1-0.9-2-2-2-1.1 0-2 0.9-2 2 0 1.1 0.9 2 2 2 1.1 0 2-0.9 2-2zm0-141.8c0-1.1-0.9-2-2-2-1.1 0-2 0.9-2 2 0 1.1 0.9 2 2 2 1.1 0 2-0.9 2-2zm0-141.7c0-1.1-0.9-2-2-2-1.1 0-2 0.9-2 2 0 1.1 0.9 2 2 2 1.1 0 2-0.9 2-2zm0-141.7c0-1.1-0.9-2-2-2-1.1 0-2 0.9-2 2 0 1.1 0.9 1.9 2 1.9 1.1 0 2-0.8 2-1.9zm0-141.8c0-1.1-0.9-2-2-2-1.1 0-2 0.9-2 2 0 1.1 0.9 2 2 2 1.1 0 2-0.9 2-2zm0-141.7c0-1.1-0.9-2-2-2-1.1 0-2 0.9-2 2 0 1.1 0.9 2 2 2 1.1 0 2-0.9 2-2zm0-141.7c0-1.1-0.9-2-2-2-1.1 0-2 0.9-2 2 0 1.1 0.9 1.9 2 1.9 1.1 0 2-0.8 2-1.9zm0-141.8c0-1.1-0.9-2-2-2-1.1 0-2 0.9-2 2 0 1.1 0.9 2 2 2 1.1 0 2-0.9 2-2zm0-141.7c0-1.1-0.9-2-2-2-1.1 0-2 0.9-2 2 0 1.1 0.9 2 2 2 1.1 0 2-0.9 2-2zm0-141.7c0-1.1-0.9-2-2-2-1.1 0-2 0.9-2 2 0 1.1 0.9 1.9 2 1.9 1.1 0 2-0.8 2-1.9zm0-141.8c0-1.1-0.9-2-2-2-1.1 0-2 0.9-2 2 0 1.1 0.9 2 2 2 1.1 0 2-0.9 2-2zm0-141.7c0-1.1-0.9-2-2-2-1.1 0-2 0.9-2 2 0 1.1 0.9 2 2 2 1.1 0 2-0.9 2-2zm141.7 1700.8c0-1.1-0.9-2-2-2-1.1 0-1.9 0.9-1.9 2 0 1.1 0.8 2 1.9 2 1.1 0 2-0.9 2-2z"/>
		<path id="Path 10" fill-rule="evenodd" class="s1" d="m824 1814.2c0-1.1-0.9-2-2-2-1.1 0-1.9 0.9-1.9 2 0 1.1 0.8 2 1.9 2 1.1 0 2-0.9 2-2zm0-141.8c0-1.1-0.9-2-2-2-1.1 0-1.9 0.9-1.9 2 0 1.1 0.8 2 1.9 2 1.1 0 2-0.9 2-2zm0-141.7c0-1.1-0.9-2-2-2-1.1 0-1.9 0.9-1.9 2 0 1.1 0.8 2 1.9 2 1.1 0 2-0.9 2-2zm0-141.7c0-1.1-0.9-2-2-2-1.1 0-1.9 0.9-1.9 2 0 1.1 0.8 1.9 1.9 1.9 1.1 0 2-0.8 2-1.9zm0-141.8c0-1.1-0.9-2-2-2-1.1 0-1.9 0.9-1.9 2 0 1.1 0.8 2 1.9 2 1.1 0 2-0.9 2-2zm0-141.7c0-1.1-0.9-2-2-2-1.1 0-1.9 0.9-1.9 2 0 1.1 0.8 2 1.9 2 1.1 0 2-0.9 2-2zm0-141.7c0-1.1-0.9-2-2-2-1.1 0-1.9 0.9-1.9 2 0 1.1 0.8 1.9 1.9 1.9 1.1 0 2-0.8 2-1.9zm0-141.8c0-1.1-0.9-2-2-2-1.1 0-1.9 0.9-1.9 2 0 1.1 0.8 2 1.9 2 1.1 0 2-0.9 2-2zm0-141.7c0-1.1-0.9-2-2-2-1.1 0-1.9 0.9-1.9 2 0 1.1 0.8 2 1.9 2 1.1 0 2-0.9 2-2zm0-141.7c0-1.1-0.9-2-2-2-1.1 0-1.9 0.9-1.9 2 0 1.1 0.8 1.9 1.9 1.9 1.1 0 2-0.8 2-1.9zm0-141.8c0-1.1-0.9-2-2-2-1.1 0-1.9 0.9-1.9 2 0 1.1 0.8 2 1.9 2 1.1 0 2-0.9 2-2zm0-141.7c0-1.1-0.9-2-2-2-1.1 0-1.9 0.9-1.9 2 0 1.1 0.8 2 1.9 2 1.1 0 2-0.9 2-2zm141.8 1700.8c0-1.1-0.9-2-2-2-1.1 0-2 0.9-2 2 0 1.1 0.9 2 2 2 1.1 0 2-0.9 2-2z"/>
		<path id="Path 11" fill-rule="evenodd" class="s1" d="m965.8 1814.2c0-1.1-0.9-2-2-2-1.1 0-2 0.9-2 2 0 1.1 0.9 2 2 2 1.1 0 2-0.9 2-2zm0-141.8c0-1.1-0.9-2-2-2-1.1 0-2 0.9-2 2 0 1.1 0.9 2 2 2 1.1 0 2-0.9 2-2zm0-141.7c0-1.1-0.9-2-2-2-1.1 0-2 0.9-2 2 0 1.1 0.9 2 2 2 1.1 0 2-0.9 2-2zm0-141.7c0-1.1-0.9-2-2-2-1.1 0-2 0.9-2 2 0 1.1 0.9 1.9 2 1.9 1.1 0 2-0.8 2-1.9zm0-141.8c0-1.1-0.9-2-2-2-1.1 0-2 0.9-2 2 0 1.1 0.9 2 2 2 1.1 0 2-0.9 2-2zm0-141.7c0-1.1-0.9-2-2-2-1.1 0-2 0.9-2 2 0 1.1 0.9 2 2 2 1.1 0 2-0.9 2-2zm0-141.7c0-1.1-0.9-2-2-2-1.1 0-2 0.9-2 2 0 1.1 0.9 1.9 2 1.9 1.1 0 2-0.8 2-1.9zm0-141.8c0-1.1-0.9-2-2-2-1.1 0-2 0.9-2 2 0 1.1 0.9 2 2 2 1.1 0 2-0.9 2-2zm0-141.7c0-1.1-0.9-2-2-2-1.1 0-2 0.9-2 2 0 1.1 0.9 2 2 2 1.1 0 2-0.9 2-2zm0-141.7c0-1.1-0.9-2-2-2-1.1 0-2 0.9-2 2 0 1.1 0.9 1.9 2 1.9 1.1 0 2-0.8 2-1.9zm0-141.8c0-1.1-0.9-2-2-2-1.1 0-2 0.9-2 2 0 1.1 0.9 2 2 2 1.1 0 2-0.9 2-2zm0-141.7c0-1.1-0.9-2-2-2-1.1 0-2 0.9-2 2 0 1.1 0.9 2 2 2 1.1 0 2-0.9 2-2zm141.7 1700.8c0-1.1-0.9-2-2-2-1.1 0-2 0.9-2 2 0 1.1 0.9 2 2 2 1.1 0 2-0.9 2-2z"/>
		<path id="Path 12" fill-rule="evenodd" class="s1" d="m1107.5 1814.2c0-1.1-0.9-2-2-2-1.1 0-2 0.9-2 2 0 1.1 0.9 2 2 2 1.1 0 2-0.9 2-2zm0-141.8c0-1.1-0.9-2-2-2-1.1 0-2 0.9-2 2 0 1.1 0.9 2 2 2 1.1 0 2-0.9 2-2zm0-141.7c0-1.1-0.9-2-2-2-1.1 0-2 0.9-2 2 0 1.1 0.9 2 2 2 1.1 0 2-0.9 2-2zm0-141.7c0-1.1-0.9-2-2-2-1.1 0-2 0.9-2 2 0 1.1 0.9 1.9 2 1.9 1.1 0 2-0.8 2-1.9zm0-141.8c0-1.1-0.9-2-2-2-1.1 0-2 0.9-2 2 0 1.1 0.9 2 2 2 1.1 0 2-0.9 2-2zm0-141.7c0-1.1-0.9-2-2-2-1.1 0-2 0.9-2 2 0 1.1 0.9 2 2 2 1.1 0 2-0.9 2-2zm0-141.7c0-1.1-0.9-2-2-2-1.1 0-2 0.9-2 2 0 1.1 0.9 1.9 2 1.9 1.1 0 2-0.8 2-1.9zm0-141.8c0-1.1-0.9-2-2-2-1.1 0-2 0.9-2 2 0 1.1 0.9 2 2 2 1.1 0 2-0.9 2-2zm0-141.7c0-1.1-0.9-2-2-2-1.1 0-2 0.9-2 2 0 1.1 0.9 2 2 2 1.1 0 2-0.9 2-2zm0-141.7c0-1.1-0.9-2-2-2-1.1 0-2 0.9-2 2 0 1.1 0.9 1.9 2 1.9 1.1 0 2-0.8 2-1.9zm0-141.8c0-1.1-0.9-2-2-2-1.1 0-2 0.9-2 2 0 1.1 0.9 2 2 2 1.1 0 2-0.9 2-2zm0-141.7c0-1.1-0.9-2-2-2-1.1 0-2 0.9-2 2 0 1.1 0.9 2 2 2 1.1 0 2-0.9 2-2zm141.7 1700.8c0-1.1-0.9-2-2-2-1.1 0-1.9 0.9-1.9 2 0 1.1 0.8 2 1.9 2 1.1 0 2-0.9 2-2z"/>
		<path id="Path 13" fill-rule="evenodd" class="s1" d="m1249.2 1814.2c0-1.1-0.9-2-2-2-1.1 0-1.9 0.9-1.9 2 0 1.1 0.8 2 1.9 2 1.1 0 2-0.9 2-2zm0-141.8c0-1.1-0.9-2-2-2-1.1 0-1.9 0.9-1.9 2 0 1.1 0.8 2 1.9 2 1.1 0 2-0.9 2-2zm0-141.7c0-1.1-0.9-2-2-2-1.1 0-1.9 0.9-1.9 2 0 1.1 0.8 2 1.9 2 1.1 0 2-0.9 2-2zm0-141.7c0-1.1-0.9-2-2-2-1.1 0-1.9 0.9-1.9 2 0 1.1 0.8 1.9 1.9 1.9 1.1 0 2-0.8 2-1.9zm0-141.8c0-1.1-0.9-2-2-2-1.1 0-1.9 0.9-1.9 2 0 1.1 0.8 2 1.9 2 1.1 0 2-0.9 2-2zm0-141.7c0-1.1-0.9-2-2-2-1.1 0-1.9 0.9-1.9 2 0 1.1 0.8 2 1.9 2 1.1 0 2-0.9 2-2zm0-141.7c0-1.1-0.9-2-2-2-1.1 0-1.9 0.9-1.9 2 0 1.1 0.8 1.9 1.9 1.9 1.1 0 2-0.8 2-1.9zm0-141.8c0-1.1-0.9-2-2-2-1.1 0-1.9 0.9-1.9 2 0 1.1 0.8 2 1.9 2 1.1 0 2-0.9 2-2zm0-141.7c0-1.1-0.9-2-2-2-1.1 0-1.9 0.9-1.9 2 0 1.1 0.8 2 1.9 2 1.1 0 2-0.9 2-2zm0-141.7c0-1.1-0.9-2-2-2-1.1 0-1.9 0.9-1.9 2 0 1.1 0.8 1.9 1.9 1.9 1.1 0 2-0.8 2-1.9zm0-141.8c0-1.1-0.9-2-2-2-1.1 0-1.9 0.9-1.9 2 0 1.1 0.8 2 1.9 2 1.1 0 2-0.9 2-2zm0-141.7c0-1.1-0.9-2-2-2-1.1 0-1.9 0.9-1.9 2 0 1.1 0.8 2 1.9 2 1.1 0 2-0.9 2-2zm141.8 1700.8c0-1.1-0.9-2-2-2-1.1 0-2 0.9-2 2 0 1.1 0.9 2 2 2 1.1 0 2-0.9 2-2z"/>
		<path id="Path 14" fill-rule="evenodd" class="s1" d="m1391 1814.2c0-1.1-0.9-2-2-2-1.1 0-2 0.9-2 2 0 1.1 0.9 2 2 2 1.1 0 2-0.9 2-2zm0-141.8c0-1.1-0.9-2-2-2-1.1 0-2 0.9-2 2 0 1.1 0.9 2 2 2 1.1 0 2-0.9 2-2zm0-141.7c0-1.1-0.9-2-2-2-1.1 0-2 0.9-2 2 0 1.1 0.9 2 2 2 1.1 0 2-0.9 2-2zm0-141.7c0-1.1-0.9-2-2-2-1.1 0-2 0.9-2 2 0 1.1 0.9 1.9 2 1.9 1.1 0 2-0.8 2-1.9zm0-141.8c0-1.1-0.9-2-2-2-1.1 0-2 0.9-2 2 0 1.1 0.9 2 2 2 1.1 0 2-0.9 2-2zm0-141.7c0-1.1-0.9-2-2-2-1.1 0-2 0.9-2 2 0 1.1 0.9 2 2 2 1.1 0 2-0.9 2-2zm0-141.7c0-1.1-0.9-2-2-2-1.1 0-2 0.9-2 2 0 1.1 0.9 1.9 2 1.9 1.1 0 2-0.8 2-1.9zm0-141.8c0-1.1-0.9-2-2-2-1.1 0-2 0.9-2 2 0 1.1 0.9 2 2 2 1.1 0 2-0.9 2-2zm0-141.7c0-1.1-0.9-2-2-2-1.1 0-2 0.9-2 2 0 1.1 0.9 2 2 2 1.1 0 2-0.9 2-2zm0-141.7c0-1.1-0.9-2-2-2-1.1 0-2 0.9-2 2 0 1.1 0.9 1.9 2 1.9 1.1 0 2-0.8 2-1.9zm0-141.8c0-1.1-0.9-2-2-2-1.1 0-2 0.9-2 2 0 1.1 0.9 2 2 2 1.1 0 2-0.9 2-2zm0-141.7c0-1.1-0.9-2-2-2-1.1 0-2 0.9-2 2 0 1.1 0.9 2 2 2 1.1 0 2-0.9 2-2zm141.7 1700.8c0-1.1-0.9-2-2-2-1.1 0-2 0.9-2 2 0 1.1 0.9 2 2 2 1.1 0 2-0.9 2-2z"/>
		<path id="Path 15" fill-rule="evenodd" class="s1" d="m1532.7 1814.2c0-1.1-0.9-2-2-2-1.1 0-2 0.9-2 2 0 1.1 0.9 2 2 2 1.1 0 2-0.9 2-2zm0-141.8c0-1.1-0.9-2-2-2-1.1 0-2 0.9-2 2 0 1.1 0.9 2 2 2 1.1 0 2-0.9 2-2zm0-141.7c0-1.1-0.9-2-2-2-1.1 0-2 0.9-2 2 0 1.1 0.9 2 2 2 1.1 0 2-0.9 2-2zm0-141.7c0-1.1-0.9-2-2-2-1.1 0-2 0.9-2 2 0 1.1 0.9 1.9 2 1.9 1.1 0 2-0.8 2-1.9zm0-141.8c0-1.1-0.9-2-2-2-1.1 0-2 0.9-2 2 0 1.1 0.9 2 2 2 1.1 0 2-0.9 2-2zm0-141.7c0-1.1-0.9-2-2-2-1.1 0-2 0.9-2 2 0 1.1 0.9 2 2 2 1.1 0 2-0.9 2-2zm0-141.7c0-1.1-0.9-2-2-2-1.1 0-2 0.9-2 2 0 1.1 0.9 1.9 2 1.9 1.1 0 2-0.8 2-1.9zm0-141.8c0-1.1-0.9-2-2-2-1.1 0-2 0.9-2 2 0 1.1 0.9 2 2 2 1.1 0 2-0.9 2-2zm0-141.7c0-1.1-0.9-2-2-2-1.1 0-2 0.9-2 2 0 1.1 0.9 2 2 2 1.1 0 2-0.9 2-2zm0-141.7c0-1.1-0.9-2-2-2-1.1 0-2 0.9-2 2 0 1.1 0.9 1.9 2 1.9 1.1 0 2-0.8 2-1.9zm0-141.8c0-1.1-0.9-2-2-2-1.1 0-2 0.9-2 2 0 1.1 0.9 2 2 2 1.1 0 2-0.9 2-2zm0-141.7c0-1.1-0.9-2-2-2-1.1 0-2 0.9-2 2 0 1.1 0.9 2 2 2 1.1 0 2-0.9 2-2zm141.7 1700.8c0-1.1-0.9-2-2-2-1.1 0-1.9 0.9-1.9 2 0 1.1 0.8 2 1.9 2 1.1 0 2-0.9 2-2z"/>
		<path id="Path 16" fill-rule="evenodd" class="s1" d="m1674.4 1814.2c0-1.1-0.9-2-2-2-1.1 0-1.9 0.9-1.9 2 0 1.1 0.8 2 1.9 2 1.1 0 2-0.9 2-2zm0-141.8c0-1.1-0.9-2-2-2-1.1 0-1.9 0.9-1.9 2 0 1.1 0.8 2 1.9 2 1.1 0 2-0.9 2-2zm0-141.7c0-1.1-0.9-2-2-2-1.1 0-1.9 0.9-1.9 2 0 1.1 0.8 2 1.9 2 1.1 0 2-0.9 2-2zm0-141.7c0-1.1-0.9-2-2-2-1.1 0-1.9 0.9-1.9 2 0 1.1 0.8 1.9 1.9 1.9 1.1 0 2-0.8 2-1.9zm0-141.8c0-1.1-0.9-2-2-2-1.1 0-1.9 0.9-1.9 2 0 1.1 0.8 2 1.9 2 1.1 0 2-0.9 2-2zm0-141.7c0-1.1-0.9-2-2-2-1.1 0-1.9 0.9-1.9 2 0 1.1 0.8 2 1.9 2 1.1 0 2-0.9 2-2zm0-141.7c0-1.1-0.9-2-2-2-1.1 0-1.9 0.9-1.9 2 0 1.1 0.8 1.9 1.9 1.9 1.1 0 2-0.8 2-1.9zm0-141.8c0-1.1-0.9-2-2-2-1.1 0-1.9 0.9-1.9 2 0 1.1 0.8 2 1.9 2 1.1 0 2-0.9 2-2zm0-141.7c0-1.1-0.9-2-2-2-1.1 0-1.9 0.9-1.9 2 0 1.1 0.8 2 1.9 2 1.1 0 2-0.9 2-2zm0-141.7c0-1.1-0.9-2-2-2-1.1 0-1.9 0.9-1.9 2 0 1.1 0.8 1.9 1.9 1.9 1.1 0 2-0.8 2-1.9zm0-141.8c0-1.1-0.9-2-2-2-1.1 0-1.9 0.9-1.9 2 0 1.1 0.8 2 1.9 2 1.1 0 2-0.9 2-2zm0-141.7c0-1.1-0.9-2-2-2-1.1 0-1.9 0.9-1.9 2 0 1.1 0.8 2 1.9 2 1.1 0 2-0.9 2-2zm141.8 1700.8c0-1.1-0.9-2-2-2-1.1 0-2 0.9-2 2 0 1.1 0.9 2 2 2 1.1 0 2-0.9 2-2z"/>
		<path id="Path 17" fill-rule="evenodd" class="s1" d="m1816.2 1814.2c0-1.1-0.9-2-2-2-1.1 0-2 0.9-2 2 0 1.1 0.9 2 2 2 1.1 0 2-0.9 2-2zm0-141.8c0-1.1-0.9-2-2-2-1.1 0-2 0.9-2 2 0 1.1 0.9 2 2 2 1.1 0 2-0.9 2-2zm0-141.7c0-1.1-0.9-2-2-2-1.1 0-2 0.9-2 2 0 1.1 0.9 2 2 2 1.1 0 2-0.9 2-2zm0-141.7c0-1.1-0.9-2-2-2-1.1 0-2 0.9-2 2 0 1.1 0.9 1.9 2 1.9 1.1 0 2-0.8 2-1.9zm0-141.8c0-1.1-0.9-2-2-2-1.1 0-2 0.9-2 2 0 1.1 0.9 2 2 2 1.1 0 2-0.9 2-2zm0-141.7c0-1.1-0.9-2-2-2-1.1 0-2 0.9-2 2 0 1.1 0.9 2 2 2 1.1 0 2-0.9 2-2zm0-141.7c0-1.1-0.9-2-2-2-1.1 0-2 0.9-2 2 0 1.1 0.9 1.9 2 1.9 1.1 0 2-0.8 2-1.9zm0-141.8c0-1.1-0.9-2-2-2-1.1 0-2 0.9-2 2 0 1.1 0.9 2 2 2 1.1 0 2-0.9 2-2zm0-141.7c0-1.1-0.9-2-2-2-1.1 0-2 0.9-2 2 0 1.1 0.9 2 2 2 1.1 0 2-0.9 2-2zm0-141.7c0-1.1-0.9-2-2-2-1.1 0-2 0.9-2 2 0 1.1 0.9 1.9 2 1.9 1.1 0 2-0.8 2-1.9zm0-141.8c0-1.1-0.9-2-2-2-1.1 0-2 0.9-2 2 0 1.1 0.9 2 2 2 1.1 0 2-0.9 2-2zm0-141.7c0-1.1-0.9-2-2-2-1.1 0-2 0.9-2 2 0 1.1 0.9 2 2 2 1.1 0 2-0.9 2-2zm141.7 1700.8c0-1.1-0.9-2-2-2-1.1 0-2 0.9-2 2 0 1.1 0.9 2 2 2 1.1 0 2-0.9 2-2z"/>
		<path id="Path 18" fill-rule="evenodd" class="s1" d="m1957.9 1814.2c0-1.1-0.9-2-2-2-1.1 0-2 0.9-2 2 0 1.1 0.9 2 2 2 1.1 0 2-0.9 2-2zm0-141.8c0-1.1-0.9-2-2-2-1.1 0-2 0.9-2 2 0 1.1 0.9 2 2 2 1.1 0 2-0.9 2-2zm0-141.7c0-1.1-0.9-2-2-2-1.1 0-2 0.9-2 2 0 1.1 0.9 2 2 2 1.1 0 2-0.9 2-2zm0-141.7c0-1.1-0.9-2-2-2-1.1 0-2 0.9-2 2 0 1.1 0.9 1.9 2 1.9 1.1 0 2-0.8 2-1.9zm0-141.8c0-1.1-0.9-2-2-2-1.1 0-2 0.9-2 2 0 1.1 0.9 2 2 2 1.1 0 2-0.9 2-2zm0-141.7c0-1.1-0.9-2-2-2-1.1 0-2 0.9-2 2 0 1.1 0.9 2 2 2 1.1 0 2-0.9 2-2zm0-141.7c0-1.1-0.9-2-2-2-1.1 0-2 0.9-2 2 0 1.1 0.9 1.9 2 1.9 1.1 0 2-0.8 2-1.9zm0-141.8c0-1.1-0.9-2-2-2-1.1 0-2 0.9-2 2 0 1.1 0.9 2 2 2 1.1 0 2-0.9 2-2zm0-141.7c0-1.1-0.9-2-2-2-1.1 0-2 0.9-2 2 0 1.1 0.9 2 2 2 1.1 0 2-0.9 2-2zm0-141.7c0-1.1-0.9-2-2-2-1.1 0-2 0.9-2 2 0 1.1 0.9 1.9 2 1.9 1.1 0 2-0.8 2-1.9zm0-141.8c0-1.1-0.9-2-2-2-1.1 0-2 0.9-2 2 0 1.1 0.9 2 2 2 1.1 0 2-0.9 2-2zm0-141.7c0-1.1-0.9-2-2-2-1.1 0-2 0.9-2 2 0 1.1 0.9 2 2 2 1.1 0 2-0.9 2-2z"/>
	</g>
</svg>